<?xml version="1.0" encoding="utf-8"?>
<!-- Svg Vector Icons : http://www.onlinewebfonts.com/icon -->
<!DOCTYPE svg PUBLIC "-//W3C//DTD SVG 1.1//EN" "http://www.w3.org/Graphics/SVG/1.1/DTD/svg11.dtd">
<svg version="1.1" xmlns="http://www.w3.org/2000/svg" xmlns:xlink="http://www.w3.org/1999/xlink" x="0px" y="0px" viewBox="0 0 1000 1000" enable-background="new 0 0 1000 1000" xml:space="preserve">
<metadata> Svg Vector Icons : http://www.onlinewebfonts.com/icon </metadata>
<g><path d="M951.5,309.3c-24.7-58.4-60-110.7-105-155.7c-45-45-97.4-80.3-155.7-105C630.3,23,566.1,10,500,10c-66.1,0-130.3,13-190.7,38.5c-58.4,24.7-110.8,60-155.7,105c-45,45-80.3,97.4-105,155.7C23,369.7,10,433.9,10,500c0,66.1,13,130.3,38.5,190.7c24.7,58.4,60,110.7,105,155.7c45,45,97.4,80.3,155.7,105C369.7,977,433.9,990,500,990c66.1,0,130.3-13,190.7-38.5c58.4-24.7,110.8-60,155.7-105c45-45,80.3-97.4,105-155.7C977,630.3,990,566.1,990,500C990,433.9,977,369.7,951.5,309.3z M500,922.5C267.1,922.5,77.5,733,77.5,500S267.1,77.5,500,77.5C732.9,77.5,922.5,267,922.5,500C922.5,733,732.9,922.5,500,922.5z M652.7,294.5C652.7,294.5,652.7,294.5,652.7,294.5l-157,157.3l-157.3-157c-13.6-13.6-35.7-13.6-49.3,0c0,0,0,0,0,0c-13.6,13.6-13.6,35.7,0,49.3l157.3,157l-157,157.3c-13.6,13.6-13.6,35.7,0.1,49.3c13.6,13.6,35.7,13.6,49.3,0c0,0,0,0,0,0l157-157.3l157.3,157c13.6,13.6,35.7,13.6,49.3,0c0,0,0,0,0,0c13.6-13.6,13.5-35.7-0.1-49.3L545,501.1l157-157.3c13.6-13.6,13.6-35.7-0.1-49.3C688.3,280.9,666.3,280.9,652.7,294.5z"/></g>
</svg>