<?xml version="1.0" standalone="no"?>
<!DOCTYPE svg PUBLIC "-//W3C//DTD SVG 20010904//EN"
 "http://www.w3.org/TR/2001/REC-SVG-20010904/DTD/svg10.dtd">
<svg version="1.0" xmlns="http://www.w3.org/2000/svg"
 width="849.000000pt" height="1280.000000pt" viewBox="0 0 849.000000 1280.000000"
 preserveAspectRatio="xMidYMid meet">
<metadata>
Created by potrace 1.15, written by Peter Selinger 2001-2017
</metadata>
<g transform="translate(0.000000,1280.000000) scale(0.100000,-0.100000)"
fill="#E25455" stroke="none">
<path d="M4010 12794 c-19 -2 -93 -9 -165 -15 -370 -31 -786 -130 -1155 -276
-1897 -749 -2993 -2738 -2614 -4743 195 -1032 778 -1968 1616 -2598 455 -341
976 -591 1510 -723 l138 -34 0 -517 0 -518 -740 0 c-707 0 -742 -1 -778 -19
-46 -23 -67 -46 -87 -94 -13 -31 -15 -129 -15 -732 0 -675 1 -697 20 -735 11
-21 36 -51 57 -67 l36 -28 754 -3 753 -2 0 -766 c0 -667 2 -769 15 -802 21
-49 52 -81 100 -103 38 -18 82 -19 790 -19 708 0 752 1 790 19 48 22 79 54
100 103 13 33 15 135 15 803 l0 765 710 0 c693 0 712 0 750 20 22 11 52 39 67
62 l28 42 0 716 0 717 -29 41 c-16 23 -46 50 -70 62 -41 20 -59 20 -749 20
l-707 0 0 518 0 517 138 34 c822 204 1594 678 2157 1326 873 1004 1226 2359
954 3660 -266 1270 -1105 2354 -2268 2931 -454 225 -926 363 -1437 420 -130
14 -606 27 -684 18z m550 -1445 c815 -76 1585 -537 2047 -1227 233 -349 377
-721 450 -1164 25 -148 25 -658 0 -806 -73 -445 -218 -819 -453 -1167 -468
-694 -1225 -1146 -2056 -1225 -163 -16 -535 -8 -678 15 -825 129 -1523 582
-1966 1277 -87 136 -222 414 -274 561 -210 602 -215 1254 -14 1844 284 834
940 1486 1772 1762 380 127 757 168 1172 130z"/>
</g>
</svg>
